<?xml version="1.0" encoding="utf-8" standalone="no"?>
<!DOCTYPE svg PUBLIC "-//W3C//DTD SVG 1.1//EN"
  "http://www.w3.org/Graphics/SVG/1.1/DTD/svg11.dtd">
<svg xmlns:xlink="http://www.w3.org/1999/xlink" width="467.28pt" height="242.64pt" viewBox="0 0 467.28 242.64" xmlns="http://www.w3.org/2000/svg" version="1.1">
 <metadata>
  <rdf:RDF xmlns:dc="http://purl.org/dc/elements/1.1/" xmlns:cc="http://creativecommons.org/ns#" xmlns:rdf="http://www.w3.org/1999/02/22-rdf-syntax-ns#">
   <cc:Work>
    <dc:type rdf:resource="http://purl.org/dc/dcmitype/StillImage"/>
    <dc:date>2024-06-25T11:33:16.706930</dc:date>
    <dc:format>image/svg+xml</dc:format>
    <dc:creator>
     <cc:Agent>
      <dc:title>Matplotlib v3.8.3, https://matplotlib.org/</dc:title>
     </cc:Agent>
    </dc:creator>
   </cc:Work>
  </rdf:RDF>
 </metadata>
 <defs>
  <style type="text/css">*{stroke-linejoin: round; stroke-linecap: butt}</style>
 </defs>
 <g id="figure_1">
  <g id="patch_1">
   <path d="M 0 242.64 
L 467.28 242.64 
L 467.28 0 
L 0 0 
z
" style="fill: #ffffff"/>
  </g>
  <g id="axes_1">
   <g id="patch_2">
    <path d="M 44.69375 200.68 
L 456.48 200.68 
L 456.48 26.2275 
L 44.69375 26.2275 
z
" style="fill: #ffffff"/>
   </g>
   <g id="matplotlib.axis_1">
    <g id="xtick_1">
     <g id="line2d_1">
      <defs>
       <path id="m2791a8381d" d="M 0 0 
L 0 3.5 
" style="stroke: #000000; stroke-width: 0.8"/>
      </defs>
      <g>
       <use xlink:href="#m2791a8381d" x="44.69375" y="200.68" style="stroke: #000000; stroke-width: 0.8"/>
      </g>
     </g>
     <g id="text_1">
      <!-- 0 -->
      <g transform="translate(41.5125 215.278438) scale(0.1 -0.1)">
       <defs>
        <path id="DejaVuSans-30" d="M 2034 4250 
Q 1547 4250 1301 3770 
Q 1056 3291 1056 2328 
Q 1056 1369 1301 889 
Q 1547 409 2034 409 
Q 2525 409 2770 889 
Q 3016 1369 3016 2328 
Q 3016 3291 2770 3770 
Q 2525 4250 2034 4250 
z
M 2034 4750 
Q 2819 4750 3233 4129 
Q 3647 3509 3647 2328 
Q 3647 1150 3233 529 
Q 2819 -91 2034 -91 
Q 1250 -91 836 529 
Q 422 1150 422 2328 
Q 422 3509 836 4129 
Q 1250 4750 2034 4750 
z
" transform="scale(0.015625)"/>
       </defs>
       <use xlink:href="#DejaVuSans-30"/>
      </g>
     </g>
    </g>
    <g id="xtick_2">
     <g id="line2d_2">
      <g>
       <use xlink:href="#m2791a8381d" x="99.782212" y="200.68" style="stroke: #000000; stroke-width: 0.8"/>
      </g>
     </g>
     <g id="text_2">
      <!-- 20 -->
      <g transform="translate(93.419712 215.278438) scale(0.1 -0.1)">
       <defs>
        <path id="DejaVuSans-32" d="M 1228 531 
L 3431 531 
L 3431 0 
L 469 0 
L 469 531 
Q 828 903 1448 1529 
Q 2069 2156 2228 2338 
Q 2531 2678 2651 2914 
Q 2772 3150 2772 3378 
Q 2772 3750 2511 3984 
Q 2250 4219 1831 4219 
Q 1534 4219 1204 4116 
Q 875 4013 500 3803 
L 500 4441 
Q 881 4594 1212 4672 
Q 1544 4750 1819 4750 
Q 2544 4750 2975 4387 
Q 3406 4025 3406 3419 
Q 3406 3131 3298 2873 
Q 3191 2616 2906 2266 
Q 2828 2175 2409 1742 
Q 1991 1309 1228 531 
z
" transform="scale(0.015625)"/>
       </defs>
       <use xlink:href="#DejaVuSans-32"/>
       <use xlink:href="#DejaVuSans-30" x="63.623047"/>
      </g>
     </g>
    </g>
    <g id="xtick_3">
     <g id="line2d_3">
      <g>
       <use xlink:href="#m2791a8381d" x="154.870673" y="200.68" style="stroke: #000000; stroke-width: 0.8"/>
      </g>
     </g>
     <g id="text_3">
      <!-- 40 -->
      <g transform="translate(148.508173 215.278438) scale(0.1 -0.1)">
       <defs>
        <path id="DejaVuSans-34" d="M 2419 4116 
L 825 1625 
L 2419 1625 
L 2419 4116 
z
M 2253 4666 
L 3047 4666 
L 3047 1625 
L 3713 1625 
L 3713 1100 
L 3047 1100 
L 3047 0 
L 2419 0 
L 2419 1100 
L 313 1100 
L 313 1709 
L 2253 4666 
z
" transform="scale(0.015625)"/>
       </defs>
       <use xlink:href="#DejaVuSans-34"/>
       <use xlink:href="#DejaVuSans-30" x="63.623047"/>
      </g>
     </g>
    </g>
    <g id="xtick_4">
     <g id="line2d_4">
      <g>
       <use xlink:href="#m2791a8381d" x="209.959135" y="200.68" style="stroke: #000000; stroke-width: 0.8"/>
      </g>
     </g>
     <g id="text_4">
      <!-- 60 -->
      <g transform="translate(203.596635 215.278438) scale(0.1 -0.1)">
       <defs>
        <path id="DejaVuSans-36" d="M 2113 2584 
Q 1688 2584 1439 2293 
Q 1191 2003 1191 1497 
Q 1191 994 1439 701 
Q 1688 409 2113 409 
Q 2538 409 2786 701 
Q 3034 994 3034 1497 
Q 3034 2003 2786 2293 
Q 2538 2584 2113 2584 
z
M 3366 4563 
L 3366 3988 
Q 3128 4100 2886 4159 
Q 2644 4219 2406 4219 
Q 1781 4219 1451 3797 
Q 1122 3375 1075 2522 
Q 1259 2794 1537 2939 
Q 1816 3084 2150 3084 
Q 2853 3084 3261 2657 
Q 3669 2231 3669 1497 
Q 3669 778 3244 343 
Q 2819 -91 2113 -91 
Q 1303 -91 875 529 
Q 447 1150 447 2328 
Q 447 3434 972 4092 
Q 1497 4750 2381 4750 
Q 2619 4750 2861 4703 
Q 3103 4656 3366 4563 
z
" transform="scale(0.015625)"/>
       </defs>
       <use xlink:href="#DejaVuSans-36"/>
       <use xlink:href="#DejaVuSans-30" x="63.623047"/>
      </g>
     </g>
    </g>
    <g id="xtick_5">
     <g id="line2d_5">
      <g>
       <use xlink:href="#m2791a8381d" x="265.047596" y="200.68" style="stroke: #000000; stroke-width: 0.8"/>
      </g>
     </g>
     <g id="text_5">
      <!-- 80 -->
      <g transform="translate(258.685096 215.278438) scale(0.1 -0.1)">
       <defs>
        <path id="DejaVuSans-38" d="M 2034 2216 
Q 1584 2216 1326 1975 
Q 1069 1734 1069 1313 
Q 1069 891 1326 650 
Q 1584 409 2034 409 
Q 2484 409 2743 651 
Q 3003 894 3003 1313 
Q 3003 1734 2745 1975 
Q 2488 2216 2034 2216 
z
M 1403 2484 
Q 997 2584 770 2862 
Q 544 3141 544 3541 
Q 544 4100 942 4425 
Q 1341 4750 2034 4750 
Q 2731 4750 3128 4425 
Q 3525 4100 3525 3541 
Q 3525 3141 3298 2862 
Q 3072 2584 2669 2484 
Q 3125 2378 3379 2068 
Q 3634 1759 3634 1313 
Q 3634 634 3220 271 
Q 2806 -91 2034 -91 
Q 1263 -91 848 271 
Q 434 634 434 1313 
Q 434 1759 690 2068 
Q 947 2378 1403 2484 
z
M 1172 3481 
Q 1172 3119 1398 2916 
Q 1625 2713 2034 2713 
Q 2441 2713 2670 2916 
Q 2900 3119 2900 3481 
Q 2900 3844 2670 4047 
Q 2441 4250 2034 4250 
Q 1625 4250 1398 4047 
Q 1172 3844 1172 3481 
z
" transform="scale(0.015625)"/>
       </defs>
       <use xlink:href="#DejaVuSans-38"/>
       <use xlink:href="#DejaVuSans-30" x="63.623047"/>
      </g>
     </g>
    </g>
    <g id="xtick_6">
     <g id="line2d_6">
      <g>
       <use xlink:href="#m2791a8381d" x="320.136058" y="200.68" style="stroke: #000000; stroke-width: 0.8"/>
      </g>
     </g>
     <g id="text_6">
      <!-- 100 -->
      <g transform="translate(310.592308 215.278438) scale(0.1 -0.1)">
       <defs>
        <path id="DejaVuSans-31" d="M 794 531 
L 1825 531 
L 1825 4091 
L 703 3866 
L 703 4441 
L 1819 4666 
L 2450 4666 
L 2450 531 
L 3481 531 
L 3481 0 
L 794 0 
L 794 531 
z
" transform="scale(0.015625)"/>
       </defs>
       <use xlink:href="#DejaVuSans-31"/>
       <use xlink:href="#DejaVuSans-30" x="63.623047"/>
       <use xlink:href="#DejaVuSans-30" x="127.246094"/>
      </g>
     </g>
    </g>
    <g id="xtick_7">
     <g id="line2d_7">
      <g>
       <use xlink:href="#m2791a8381d" x="375.224519" y="200.68" style="stroke: #000000; stroke-width: 0.8"/>
      </g>
     </g>
     <g id="text_7">
      <!-- 120 -->
      <g transform="translate(365.680769 215.278438) scale(0.1 -0.1)">
       <use xlink:href="#DejaVuSans-31"/>
       <use xlink:href="#DejaVuSans-32" x="63.623047"/>
       <use xlink:href="#DejaVuSans-30" x="127.246094"/>
      </g>
     </g>
    </g>
    <g id="xtick_8">
     <g id="line2d_8">
      <g>
       <use xlink:href="#m2791a8381d" x="430.312981" y="200.68" style="stroke: #000000; stroke-width: 0.8"/>
      </g>
     </g>
     <g id="text_8">
      <!-- 140 -->
      <g transform="translate(420.769231 215.278438) scale(0.1 -0.1)">
       <use xlink:href="#DejaVuSans-31"/>
       <use xlink:href="#DejaVuSans-34" x="63.623047"/>
       <use xlink:href="#DejaVuSans-30" x="127.246094"/>
      </g>
     </g>
    </g>
    <g id="text_9">
     <!-- Время, c -->
     <g transform="translate(228.198594 228.956563) scale(0.1 -0.1)">
      <defs>
       <path id="DejaVuSans-412" d="M 1259 2228 
L 1259 519 
L 2272 519 
Q 2781 519 3026 730 
Q 3272 941 3272 1375 
Q 3272 1813 3026 2020 
Q 2781 2228 2272 2228 
L 1259 2228 
z
M 1259 4147 
L 1259 2741 
L 2194 2741 
Q 2656 2741 2882 2914 
Q 3109 3088 3109 3444 
Q 3109 3797 2882 3972 
Q 2656 4147 2194 4147 
L 1259 4147 
z
M 628 4666 
L 2241 4666 
Q 2963 4666 3353 4366 
Q 3744 4066 3744 3513 
Q 3744 3084 3544 2831 
Q 3344 2578 2956 2516 
Q 3422 2416 3680 2098 
Q 3938 1781 3938 1306 
Q 3938 681 3513 340 
Q 3088 0 2303 0 
L 628 0 
L 628 4666 
z
" transform="scale(0.015625)"/>
       <path id="DejaVuSans-440" d="M 1159 525 
L 1159 -1331 
L 581 -1331 
L 581 3500 
L 1159 3500 
L 1159 2969 
Q 1341 3281 1617 3432 
Q 1894 3584 2278 3584 
Q 2916 3584 3314 3078 
Q 3713 2572 3713 1747 
Q 3713 922 3314 415 
Q 2916 -91 2278 -91 
Q 1894 -91 1617 61 
Q 1341 213 1159 525 
z
M 3116 1747 
Q 3116 2381 2855 2742 
Q 2594 3103 2138 3103 
Q 1681 3103 1420 2742 
Q 1159 2381 1159 1747 
Q 1159 1113 1420 752 
Q 1681 391 2138 391 
Q 2594 391 2855 752 
Q 3116 1113 3116 1747 
z
" transform="scale(0.015625)"/>
       <path id="DejaVuSans-435" d="M 3597 1894 
L 3597 1613 
L 953 1613 
Q 991 1019 1311 708 
Q 1631 397 2203 397 
Q 2534 397 2845 478 
Q 3156 559 3463 722 
L 3463 178 
Q 3153 47 2828 -22 
Q 2503 -91 2169 -91 
Q 1331 -91 842 396 
Q 353 884 353 1716 
Q 353 2575 817 3079 
Q 1281 3584 2069 3584 
Q 2775 3584 3186 3129 
Q 3597 2675 3597 1894 
z
M 3022 2063 
Q 3016 2534 2758 2815 
Q 2500 3097 2075 3097 
Q 1594 3097 1305 2825 
Q 1016 2553 972 2059 
L 3022 2063 
z
" transform="scale(0.015625)"/>
       <path id="DejaVuSans-43c" d="M 581 3500 
L 1422 3500 
L 2416 1156 
L 3413 3500 
L 4247 3500 
L 4247 0 
L 3669 0 
L 3669 2950 
L 2703 672 
L 2128 672 
L 1159 2950 
L 1159 0 
L 581 0 
L 581 3500 
z
" transform="scale(0.015625)"/>
       <path id="DejaVuSans-44f" d="M 1181 2491 
Q 1181 2231 1381 2084 
Q 1581 1938 1953 1938 
L 2728 1938 
L 2728 3041 
L 1953 3041 
Q 1581 3041 1381 2897 
Q 1181 2753 1181 2491 
z
M 363 0 
L 1431 1534 
Q 1069 1616 828 1830 
Q 588 2044 588 2491 
Q 588 2997 923 3248 
Q 1259 3500 1938 3500 
L 3306 3500 
L 3306 0 
L 2728 0 
L 2728 1478 
L 2013 1478 
L 981 0 
L 363 0 
z
" transform="scale(0.015625)"/>
       <path id="DejaVuSans-2c" d="M 750 794 
L 1409 794 
L 1409 256 
L 897 -744 
L 494 -744 
L 750 256 
L 750 794 
z
" transform="scale(0.015625)"/>
       <path id="DejaVuSans-20" transform="scale(0.015625)"/>
       <path id="DejaVuSans-63" d="M 3122 3366 
L 3122 2828 
Q 2878 2963 2633 3030 
Q 2388 3097 2138 3097 
Q 1578 3097 1268 2742 
Q 959 2388 959 1747 
Q 959 1106 1268 751 
Q 1578 397 2138 397 
Q 2388 397 2633 464 
Q 2878 531 3122 666 
L 3122 134 
Q 2881 22 2623 -34 
Q 2366 -91 2075 -91 
Q 1284 -91 818 406 
Q 353 903 353 1747 
Q 353 2603 823 3093 
Q 1294 3584 2113 3584 
Q 2378 3584 2631 3529 
Q 2884 3475 3122 3366 
z
" transform="scale(0.015625)"/>
      </defs>
      <use xlink:href="#DejaVuSans-412"/>
      <use xlink:href="#DejaVuSans-440" x="68.603516"/>
      <use xlink:href="#DejaVuSans-435" x="132.080078"/>
      <use xlink:href="#DejaVuSans-43c" x="193.603516"/>
      <use xlink:href="#DejaVuSans-44f" x="269.042969"/>
      <use xlink:href="#DejaVuSans-2c" x="329.199219"/>
      <use xlink:href="#DejaVuSans-20" x="360.986328"/>
      <use xlink:href="#DejaVuSans-63" x="392.773438"/>
     </g>
    </g>
   </g>
   <g id="matplotlib.axis_2">
    <g id="ytick_1">
     <g id="line2d_9">
      <defs>
       <path id="m8a760dd203" d="M 0 0 
L -3.5 0 
" style="stroke: #000000; stroke-width: 0.8"/>
      </defs>
      <g>
       <use xlink:href="#m8a760dd203" x="44.69375" y="178.415171" style="stroke: #000000; stroke-width: 0.8"/>
      </g>
     </g>
     <g id="text_10">
      <!-- 2 -->
      <g transform="translate(31.33125 182.214389) scale(0.1 -0.1)">
       <use xlink:href="#DejaVuSans-32"/>
      </g>
     </g>
    </g>
    <g id="ytick_2">
     <g id="line2d_10">
      <g>
       <use xlink:href="#m8a760dd203" x="44.69375" y="153.517999" style="stroke: #000000; stroke-width: 0.8"/>
      </g>
     </g>
     <g id="text_11">
      <!-- 4 -->
      <g transform="translate(31.33125 157.317218) scale(0.1 -0.1)">
       <use xlink:href="#DejaVuSans-34"/>
      </g>
     </g>
    </g>
    <g id="ytick_3">
     <g id="line2d_11">
      <g>
       <use xlink:href="#m8a760dd203" x="44.69375" y="128.620827" style="stroke: #000000; stroke-width: 0.8"/>
      </g>
     </g>
     <g id="text_12">
      <!-- 6 -->
      <g transform="translate(31.33125 132.420046) scale(0.1 -0.1)">
       <use xlink:href="#DejaVuSans-36"/>
      </g>
     </g>
    </g>
    <g id="ytick_4">
     <g id="line2d_12">
      <g>
       <use xlink:href="#m8a760dd203" x="44.69375" y="103.723656" style="stroke: #000000; stroke-width: 0.8"/>
      </g>
     </g>
     <g id="text_13">
      <!-- 8 -->
      <g transform="translate(31.33125 107.522875) scale(0.1 -0.1)">
       <use xlink:href="#DejaVuSans-38"/>
      </g>
     </g>
    </g>
    <g id="ytick_5">
     <g id="line2d_13">
      <g>
       <use xlink:href="#m8a760dd203" x="44.69375" y="78.826484" style="stroke: #000000; stroke-width: 0.8"/>
      </g>
     </g>
     <g id="text_14">
      <!-- 10 -->
      <g transform="translate(24.96875 82.625703) scale(0.1 -0.1)">
       <use xlink:href="#DejaVuSans-31"/>
       <use xlink:href="#DejaVuSans-30" x="63.623047"/>
      </g>
     </g>
    </g>
    <g id="ytick_6">
     <g id="line2d_14">
      <g>
       <use xlink:href="#m8a760dd203" x="44.69375" y="53.929313" style="stroke: #000000; stroke-width: 0.8"/>
      </g>
     </g>
     <g id="text_15">
      <!-- 12 -->
      <g transform="translate(24.96875 57.728531) scale(0.1 -0.1)">
       <use xlink:href="#DejaVuSans-31"/>
       <use xlink:href="#DejaVuSans-32" x="63.623047"/>
      </g>
     </g>
    </g>
    <g id="ytick_7">
     <g id="line2d_15">
      <g>
       <use xlink:href="#m8a760dd203" x="44.69375" y="29.032141" style="stroke: #000000; stroke-width: 0.8"/>
      </g>
     </g>
     <g id="text_16">
      <!-- 14 -->
      <g transform="translate(24.96875 32.83136) scale(0.1 -0.1)">
       <use xlink:href="#DejaVuSans-31"/>
       <use xlink:href="#DejaVuSans-34" x="63.623047"/>
      </g>
     </g>
    </g>
    <g id="text_17">
     <!-- Средняя площадь области, мкм² -->
     <g transform="translate(18.889063 199.877969) rotate(-90) scale(0.1 -0.1)">
      <defs>
       <path id="DejaVuSans-421" d="M 4122 4306 
L 4122 3641 
Q 3803 3938 3442 4084 
Q 3081 4231 2675 4231 
Q 1875 4231 1450 3742 
Q 1025 3253 1025 2328 
Q 1025 1406 1450 917 
Q 1875 428 2675 428 
Q 3081 428 3442 575 
Q 3803 722 4122 1019 
L 4122 359 
Q 3791 134 3420 21 
Q 3050 -91 2638 -91 
Q 1578 -91 968 557 
Q 359 1206 359 2328 
Q 359 3453 968 4101 
Q 1578 4750 2638 4750 
Q 3056 4750 3426 4639 
Q 3797 4528 4122 4306 
z
" transform="scale(0.015625)"/>
       <path id="DejaVuSans-434" d="M 1384 459 
L 3053 459 
L 3053 3041 
L 1844 3041 
L 1844 2603 
Q 1844 1316 1475 628 
L 1384 459 
z
M 550 459 
Q 834 584 959 850 
Q 1266 1509 1266 2838 
L 1266 3500 
L 3631 3500 
L 3631 459 
L 4091 459 
L 4091 -884 
L 3631 -884 
L 3631 0 
L 794 0 
L 794 -884 
L 334 -884 
L 334 459 
L 550 459 
z
" transform="scale(0.015625)"/>
       <path id="DejaVuSans-43d" d="M 581 3500 
L 1159 3500 
L 1159 2072 
L 3025 2072 
L 3025 3500 
L 3603 3500 
L 3603 0 
L 3025 0 
L 3025 1613 
L 1159 1613 
L 1159 0 
L 581 0 
L 581 3500 
z
" transform="scale(0.015625)"/>
       <path id="DejaVuSans-43f" d="M 3603 3500 
L 3603 0 
L 3025 0 
L 3025 3041 
L 1159 3041 
L 1159 0 
L 581 0 
L 581 3500 
L 3603 3500 
z
" transform="scale(0.015625)"/>
       <path id="DejaVuSans-43b" d="M 238 0 
L 238 478 
Q 806 566 981 959 
Q 1194 1513 1194 2928 
L 1194 3500 
L 3559 3500 
L 3559 0 
L 2984 0 
L 2984 3041 
L 1769 3041 
L 1769 2694 
Q 1769 1344 1494 738 
Q 1200 91 238 0 
z
" transform="scale(0.015625)"/>
       <path id="DejaVuSans-43e" d="M 1959 3097 
Q 1497 3097 1228 2736 
Q 959 2375 959 1747 
Q 959 1119 1226 758 
Q 1494 397 1959 397 
Q 2419 397 2687 759 
Q 2956 1122 2956 1747 
Q 2956 2369 2687 2733 
Q 2419 3097 1959 3097 
z
M 1959 3584 
Q 2709 3584 3137 3096 
Q 3566 2609 3566 1747 
Q 3566 888 3137 398 
Q 2709 -91 1959 -91 
Q 1206 -91 779 398 
Q 353 888 353 1747 
Q 353 2609 779 3096 
Q 1206 3584 1959 3584 
z
" transform="scale(0.015625)"/>
       <path id="DejaVuSans-449" d="M 5275 0 
L 581 0 
L 581 3500 
L 1159 3500 
L 1159 459 
L 2638 459 
L 2638 3500 
L 3216 3500 
L 3216 459 
L 4697 459 
L 4697 3500 
L 5275 3500 
L 5275 459 
L 5734 459 
L 5734 -884 
L 5275 -884 
L 5275 0 
z
" transform="scale(0.015625)"/>
       <path id="DejaVuSans-430" d="M 2194 1759 
Q 1497 1759 1228 1600 
Q 959 1441 959 1056 
Q 959 750 1161 570 
Q 1363 391 1709 391 
Q 2188 391 2477 730 
Q 2766 1069 2766 1631 
L 2766 1759 
L 2194 1759 
z
M 3341 1997 
L 3341 0 
L 2766 0 
L 2766 531 
Q 2569 213 2275 61 
Q 1981 -91 1556 -91 
Q 1019 -91 701 211 
Q 384 513 384 1019 
Q 384 1609 779 1909 
Q 1175 2209 1959 2209 
L 2766 2209 
L 2766 2266 
Q 2766 2663 2505 2880 
Q 2244 3097 1772 3097 
Q 1472 3097 1187 3025 
Q 903 2953 641 2809 
L 641 3341 
Q 956 3463 1253 3523 
Q 1550 3584 1831 3584 
Q 2591 3584 2966 3190 
Q 3341 2797 3341 1997 
z
" transform="scale(0.015625)"/>
       <path id="DejaVuSans-44c" d="M 2781 1038 
Q 2781 1319 2576 1466 
Q 2372 1613 1978 1613 
L 1159 1613 
L 1159 459 
L 1978 459 
Q 2372 459 2576 607 
Q 2781 756 2781 1038 
z
M 581 3500 
L 1159 3500 
L 1159 2072 
L 2003 2072 
Q 2672 2072 3033 1817 
Q 3394 1563 3394 1038 
Q 3394 513 3033 256 
Q 2672 0 2003 0 
L 581 0 
L 581 3500 
z
" transform="scale(0.015625)"/>
       <path id="DejaVuSans-431" d="M 1991 3584 
Q 2741 3584 3169 3096 
Q 3597 2609 3597 1747 
Q 3597 888 3169 398 
Q 2741 -91 1991 -91 
Q 1238 -91 822 384 
Q 406 859 384 1747 
L 366 2463 
Q 350 2834 350 2963 
Q 350 3463 531 3831 
Q 816 4409 1308 4659 
Q 1800 4909 2625 4916 
Q 3006 4919 3175 4972 
L 3334 4516 
Q 3181 4453 3041 4450 
L 2259 4397 
Q 1866 4369 1628 4231 
Q 1006 3866 947 3388 
L 925 3213 
Q 1331 3584 1991 3584 
z
M 1991 3097 
Q 1528 3097 1259 2736 
Q 991 2375 991 1747 
Q 991 1119 1258 758 
Q 1525 397 1991 397 
Q 2450 397 2719 759 
Q 2988 1122 2988 1747 
Q 2988 2369 2719 2733 
Q 2450 3097 1991 3097 
z
" transform="scale(0.015625)"/>
       <path id="DejaVuSans-441" d="M 3122 3366 
L 3122 2828 
Q 2878 2963 2633 3030 
Q 2388 3097 2138 3097 
Q 1578 3097 1268 2742 
Q 959 2388 959 1747 
Q 959 1106 1268 751 
Q 1578 397 2138 397 
Q 2388 397 2633 464 
Q 2878 531 3122 666 
L 3122 134 
Q 2881 22 2623 -34 
Q 2366 -91 2075 -91 
Q 1284 -91 818 406 
Q 353 903 353 1747 
Q 353 2603 823 3093 
Q 1294 3584 2113 3584 
Q 2378 3584 2631 3529 
Q 2884 3475 3122 3366 
z
" transform="scale(0.015625)"/>
       <path id="DejaVuSans-442" d="M 188 3500 
L 3541 3500 
L 3541 3041 
L 2147 3041 
L 2147 0 
L 1581 0 
L 1581 3041 
L 188 3041 
L 188 3500 
z
" transform="scale(0.015625)"/>
       <path id="DejaVuSans-438" d="M 3578 3500 
L 3578 0 
L 3006 0 
L 3006 2809 
L 1319 0 
L 581 0 
L 581 3500 
L 1153 3500 
L 1153 697 
L 2838 3500 
L 3578 3500 
z
" transform="scale(0.015625)"/>
       <path id="DejaVuSans-43a" d="M 581 3500 
L 1153 3500 
L 1153 1856 
L 2775 3500 
L 3481 3500 
L 2144 2147 
L 3653 0 
L 3009 0 
L 1769 1766 
L 1153 1141 
L 1153 0 
L 581 0 
L 581 3500 
z
" transform="scale(0.015625)"/>
       <path id="DejaVuSans-b2" d="M 838 2444 
L 2163 2444 
L 2163 2088 
L 294 2088 
L 294 2431 
Q 400 2528 597 2703 
Q 1672 3656 1672 3950 
Q 1672 4156 1509 4282 
Q 1347 4409 1081 4409 
Q 919 4409 728 4354 
Q 538 4300 313 4191 
L 313 4575 
Q 553 4663 761 4706 
Q 969 4750 1147 4750 
Q 1600 4750 1872 4544 
Q 2144 4338 2144 4000 
Q 2144 3566 1109 2678 
Q 934 2528 838 2444 
z
" transform="scale(0.015625)"/>
      </defs>
      <use xlink:href="#DejaVuSans-421"/>
      <use xlink:href="#DejaVuSans-440" x="69.824219"/>
      <use xlink:href="#DejaVuSans-435" x="133.300781"/>
      <use xlink:href="#DejaVuSans-434" x="194.824219"/>
      <use xlink:href="#DejaVuSans-43d" x="263.964844"/>
      <use xlink:href="#DejaVuSans-44f" x="329.345703"/>
      <use xlink:href="#DejaVuSans-44f" x="389.501953"/>
      <use xlink:href="#DejaVuSans-20" x="449.658203"/>
      <use xlink:href="#DejaVuSans-43f" x="481.445312"/>
      <use xlink:href="#DejaVuSans-43b" x="546.826172"/>
      <use xlink:href="#DejaVuSans-43e" x="610.742188"/>
      <use xlink:href="#DejaVuSans-449" x="671.923828"/>
      <use xlink:href="#DejaVuSans-430" x="766.113281"/>
      <use xlink:href="#DejaVuSans-434" x="827.392578"/>
      <use xlink:href="#DejaVuSans-44c" x="896.533203"/>
      <use xlink:href="#DejaVuSans-20" x="955.46875"/>
      <use xlink:href="#DejaVuSans-43e" x="987.255859"/>
      <use xlink:href="#DejaVuSans-431" x="1048.4375"/>
      <use xlink:href="#DejaVuSans-43b" x="1110.107422"/>
      <use xlink:href="#DejaVuSans-430" x="1174.023438"/>
      <use xlink:href="#DejaVuSans-441" x="1235.302734"/>
      <use xlink:href="#DejaVuSans-442" x="1290.283203"/>
      <use xlink:href="#DejaVuSans-438" x="1348.535156"/>
      <use xlink:href="#DejaVuSans-2c" x="1413.525391"/>
      <use xlink:href="#DejaVuSans-20" x="1445.3125"/>
      <use xlink:href="#DejaVuSans-43c" x="1477.099609"/>
      <use xlink:href="#DejaVuSans-43a" x="1552.539062"/>
      <use xlink:href="#DejaVuSans-43c" x="1612.939453"/>
      <use xlink:href="#DejaVuSans-b2" x="1688.378906"/>
     </g>
    </g>
   </g>
   <g id="line2d_16">
    <path d="M 44.69375 165.520743 
L 46.070962 165.916515 
L 47.448173 169.126079 
L 48.825385 169.732885 
L 51.579808 171.544757 
L 52.957019 173.490133 
L 54.334231 172.761219 
L 55.711442 173.574238 
L 57.088654 176.040908 
L 58.465865 179.444 
L 59.843077 181.154579 
L 61.220288 181.508081 
L 62.5975 180.947404 
L 63.974712 181.618929 
L 65.351923 183.689427 
L 66.729135 183.627 
L 68.106346 185.88145 
L 69.483558 183.711182 
L 70.860769 186.32177 
L 72.237981 185.386309 
L 73.615192 184.706469 
L 74.992404 187.224598 
L 76.369615 187.028286 
L 77.746827 187.529684 
L 79.124038 188.179223 
L 80.50125 188.415678 
L 81.878462 188.903732 
L 83.255673 188.658501 
L 84.632885 186.266546 
L 86.010096 188.217792 
L 87.387308 191.911224 
L 88.764519 193.095909 
L 90.141731 194.697404 
L 91.518942 195.096244 
L 92.896154 194.827933 
L 94.273365 194.43417 
L 95.650577 194.864917 
L 98.405 195.319594 
L 99.782212 195.247803 
L 101.159423 195.023727 
L 102.536635 194.610384 
L 103.913846 194.523365 
L 105.291058 193.022277 
L 106.668269 192.926556 
L 108.045481 192.998347 
L 109.422692 191.905526 
L 112.177115 191.825758 
L 113.554327 191.453507 
L 114.931538 192.639391 
L 116.30875 192.091651 
L 117.685962 192.729795 
L 119.063173 193.764119 
L 120.440385 193.165859 
L 121.817596 191.426918 
L 123.194808 191.001489 
L 124.572019 192.041131 
L 125.949231 191.562524 
L 127.326442 189.539077 
L 128.703654 187.86395 
L 130.080865 186.002698 
L 131.458077 186.99182 
L 132.835288 187.822857 
L 134.2125 189.053822 
L 135.589712 190.954008 
L 136.966923 191.714083 
L 138.344135 191.873619 
L 139.721346 191.761944 
L 141.098558 190.612146 
L 142.475769 190.533517 
L 143.852981 189.352952 
L 145.230192 190.277321 
L 146.607404 188.78959 
L 147.984615 188.654982 
L 149.361827 186.578167 
L 150.739038 186.714912 
L 152.11625 187.09096 
L 153.493462 188.347875 
L 154.870673 190.001066 
L 156.247885 189.975142 
L 157.625096 191.466802 
L 159.002308 191.363104 
L 160.379519 189.690431 
L 161.756731 190.663425 
L 163.133942 189.727247 
L 164.511154 189.708839 
L 165.888365 189.193416 
L 167.265577 191.788942 
L 168.642788 191.925468 
L 170.02 190.796751 
L 171.397212 191.490733 
L 172.774423 191.74599 
L 174.151635 193.474295 
L 175.528846 196.013575 
L 176.906058 196.372531 
L 178.283269 198.693778 
L 179.660481 197.84254 
L 181.037692 197.728586 
L 182.414904 198.207194 
L 183.792115 198.36673 
L 185.169327 198.095519 
L 186.546538 198.382683 
L 189.300962 199.443597 
L 190.678173 199.403713 
L 192.055385 199.722785 
L 193.432596 198.765569 
L 194.809808 196.037505 
L 197.564231 195.271733 
L 198.941442 195.367455 
L 200.318654 195.271733 
L 203.073077 197.856215 
L 204.450288 194.936708 
L 205.8275 195.096244 
L 207.204712 195.893923 
L 208.581923 196.292763 
L 209.959135 196.532067 
L 211.336346 197.728586 
L 212.713558 198.446497 
L 214.090769 198.925105 
L 215.467981 199.084641 
L 216.845192 199.962088 
L 218.222404 200.440696 
L 220.976827 200.68 
L 222.354038 200.440696 
L 223.73125 198.885221 
L 225.108462 198.047658 
L 226.485673 197.56905 
L 227.862885 197.56905 
L 230.617308 195.654619 
L 231.994519 194.936708 
L 233.371731 194.936708 
L 234.748942 194.4581 
L 236.126154 194.218796 
L 237.503365 194.218796 
L 238.880577 184.168035 
L 240.257788 184.646643 
L 241.635 184.168035 
L 243.012212 183.21082 
L 244.389423 191.706106 
L 245.766635 191.107846 
L 247.143846 190.150631 
L 248.521058 188.714808 
L 249.898269 187.039681 
L 251.275481 184.885947 
L 252.652692 182.492908 
L 254.029904 181.535693 
L 255.407115 179.860566 
L 256.784327 177.467527 
L 258.161538 182.0143 
L 260.915962 163.348601 
L 262.293173 137.025178 
L 263.670385 161.43417 
L 265.047596 165.422567 
L 266.424808 180.339174 
L 267.802019 177.547295 
L 269.179231 167.05781 
L 270.556442 165.382683 
L 271.933654 125.777898 
L 273.310865 123.145556 
L 274.688077 120.991821 
L 276.065288 120.034606 
L 277.4425 119.316694 
L 278.819712 117.16296 
L 281.574135 113.812706 
L 282.951346 111.419667 
L 284.328558 110.94106 
L 285.705769 108.308717 
L 287.082981 104.240552 
L 288.460192 101.129602 
L 289.837404 150.426193 
L 291.214615 163.827209 
L 292.591827 133.196317 
L 293.969038 129.247803 
L 295.34625 130.324671 
L 296.723462 158.004148 
L 298.100673 161.83301 
L 299.477885 163.986744 
L 300.855096 85.814156 
L 303.609519 89.643018 
L 304.986731 90.839537 
L 306.363942 94.668398 
L 309.118365 104.240552 
L 310.495577 157.724961 
L 311.872788 158.92148 
L 313.25 160.955562 
L 314.627212 163.228949 
L 317.381635 166.220247 
L 318.758846 166.698855 
L 320.136058 166.459551 
L 322.890481 167.177462 
L 324.267692 167.895374 
L 325.644904 167.416766 
L 327.022115 167.775722 
L 328.399327 167.297114 
L 329.776538 166.220247 
L 331.15375 164.425468 
L 332.530962 162.989645 
L 335.285385 161.194866 
L 336.662596 115.248529 
L 338.039808 113.094794 
L 339.417019 109.265933 
L 340.794231 108.787325 
L 342.171442 107.351502 
L 343.548654 108.069414 
L 344.925865 107.83011 
L 346.303077 108.548021 
L 347.680288 110.462452 
L 349.0575 110.462452 
L 350.434712 111.419667 
L 351.811923 114.769921 
L 353.189135 115.248529 
L 354.566346 117.16296 
L 355.943558 116.684352 
L 357.320769 118.598783 
L 360.075192 120.034606 
L 361.452404 120.273909 
L 362.829615 122.427644 
L 364.206827 121.470429 
L 365.584038 122.906252 
L 366.96125 121.231125 
L 368.338462 118.838086 
L 369.715673 115.727136 
L 371.092885 113.334098 
L 372.470096 110.223148 
L 373.847308 104.240552 
L 375.224519 94.189791 
L 376.601731 78.635041 
L 377.978942 73.370357 
L 379.356154 70.498711 
L 380.733365 71.455926 
L 382.110577 72.652445 
L 383.487788 75.045484 
L 384.865 139.298565 
L 386.242212 140.614736 
L 387.619423 140.25578 
L 388.996635 142.050559 
L 390.373846 141.332647 
L 391.751058 141.930907 
L 394.505481 143.486382 
L 395.882692 142.888122 
L 397.259904 144.084642 
L 398.637115 145.520465 
L 400.014327 148.392111 
L 402.76875 151.383409 
L 404.145962 151.622713 
L 405.523173 100.172387 
L 406.900385 102.565425 
L 408.277596 104.71916 
L 409.654808 103.283337 
L 411.032019 103.761944 
L 412.409231 153.058536 
L 413.786442 151.503061 
L 415.163654 148.511763 
L 416.540865 83.899726 
L 417.918077 74.80618 
L 419.295288 70.498711 
L 420.6725 65.234026 
L 422.049712 61.165861 
L 426.181346 50.157884 
L 427.558558 43.457377 
L 428.935769 40.58573 
L 430.312981 37.235477 
L 431.690192 38.6713 
L 433.067404 37.474781 
L 434.444615 36.996173 
L 435.821827 34.363831 
L 438.57625 32.4494 
L 439.953462 32.928008 
L 441.330673 34.603134 
L 442.707885 34.842438 
L 444.085096 31.492184 
L 445.462308 26.2275 
L 446.839519 110.3428 
L 448.216731 95.38631 
L 449.593942 85.335549 
L 450.971154 82.104947 
L 452.348365 81.865643 
L 453.725577 82.344251 
L 455.102788 86.292764 
L 456.48 93.232575 
L 456.48 93.232575 
" clip-path="url(#pcbe1d5ce90)" style="fill: none; stroke: #7b68ee; stroke-width: 3; stroke-linecap: square"/>
   </g>
   <g id="patch_3">
    <path d="M 44.69375 200.68 
L 44.69375 26.2275 
" style="fill: none; stroke: #000000; stroke-width: 0.8; stroke-linejoin: miter; stroke-linecap: square"/>
   </g>
   <g id="patch_4">
    <path d="M 456.48 200.68 
L 456.48 26.2275 
" style="fill: none; stroke: #000000; stroke-width: 0.8; stroke-linejoin: miter; stroke-linecap: square"/>
   </g>
   <g id="patch_5">
    <path d="M 44.69375 200.68 
L 456.48 200.68 
" style="fill: none; stroke: #000000; stroke-width: 0.8; stroke-linejoin: miter; stroke-linecap: square"/>
   </g>
   <g id="patch_6">
    <path d="M 44.69375 26.2275 
L 456.48 26.2275 
" style="fill: none; stroke: #000000; stroke-width: 0.8; stroke-linejoin: miter; stroke-linecap: square"/>
   </g>
   <g id="text_18">
    <!-- Средняя площадь области в зависимости от времени -->
    <g transform="translate(79.975938 20.2275) scale(0.12 -0.12)">
     <defs>
      <path id="DejaVuSans-432" d="M 1156 1613 
L 1156 459 
L 1975 459 
Q 2369 459 2575 607 
Q 2781 756 2781 1038 
Q 2781 1319 2575 1466 
Q 2369 1613 1975 1613 
L 1156 1613 
z
M 1156 3041 
L 1156 2072 
L 1913 2072 
Q 2238 2072 2444 2201 
Q 2650 2331 2650 2563 
Q 2650 2794 2444 2917 
Q 2238 3041 1913 3041 
L 1156 3041 
z
M 581 3500 
L 1950 3500 
Q 2566 3500 2897 3275 
Q 3228 3050 3228 2634 
Q 3228 2313 3059 2123 
Q 2891 1934 2559 1888 
Q 2956 1813 3175 1575 
Q 3394 1338 3394 981 
Q 3394 513 3033 256 
Q 2672 0 2003 0 
L 581 0 
L 581 3500 
z
" transform="scale(0.015625)"/>
      <path id="DejaVuSans-437" d="M 2206 1888 
Q 2594 1813 2809 1584 
Q 3025 1356 3025 1019 
Q 3025 478 2622 193 
Q 2219 -91 1475 -91 
Q 1225 -91 961 -47 
Q 697 -3 416 84 
L 416 619 
Q 638 503 903 445 
Q 1169 388 1459 388 
Q 1931 388 2195 563 
Q 2459 738 2459 1019 
Q 2459 1294 2225 1461 
Q 1991 1628 1563 1628 
L 1100 1628 
L 1100 2103 
L 1584 2103 
Q 1947 2103 2158 2242 
Q 2369 2381 2369 2600 
Q 2369 2800 2151 2944 
Q 1934 3088 1563 3088 
Q 1341 3088 1089 3047 
Q 838 3006 534 2916 
L 534 3438 
Q 841 3513 1106 3550 
Q 1372 3588 1609 3588 
Q 2222 3588 2576 3342 
Q 2931 3097 2931 2656 
Q 2931 2366 2743 2164 
Q 2556 1963 2206 1888 
z
" transform="scale(0.015625)"/>
     </defs>
     <use xlink:href="#DejaVuSans-421"/>
     <use xlink:href="#DejaVuSans-440" x="69.824219"/>
     <use xlink:href="#DejaVuSans-435" x="133.300781"/>
     <use xlink:href="#DejaVuSans-434" x="194.824219"/>
     <use xlink:href="#DejaVuSans-43d" x="263.964844"/>
     <use xlink:href="#DejaVuSans-44f" x="329.345703"/>
     <use xlink:href="#DejaVuSans-44f" x="389.501953"/>
     <use xlink:href="#DejaVuSans-20" x="449.658203"/>
     <use xlink:href="#DejaVuSans-43f" x="481.445312"/>
     <use xlink:href="#DejaVuSans-43b" x="546.826172"/>
     <use xlink:href="#DejaVuSans-43e" x="610.742188"/>
     <use xlink:href="#DejaVuSans-449" x="671.923828"/>
     <use xlink:href="#DejaVuSans-430" x="766.113281"/>
     <use xlink:href="#DejaVuSans-434" x="827.392578"/>
     <use xlink:href="#DejaVuSans-44c" x="896.533203"/>
     <use xlink:href="#DejaVuSans-20" x="955.46875"/>
     <use xlink:href="#DejaVuSans-43e" x="987.255859"/>
     <use xlink:href="#DejaVuSans-431" x="1048.4375"/>
     <use xlink:href="#DejaVuSans-43b" x="1110.107422"/>
     <use xlink:href="#DejaVuSans-430" x="1174.023438"/>
     <use xlink:href="#DejaVuSans-441" x="1235.302734"/>
     <use xlink:href="#DejaVuSans-442" x="1290.283203"/>
     <use xlink:href="#DejaVuSans-438" x="1348.535156"/>
     <use xlink:href="#DejaVuSans-20" x="1413.525391"/>
     <use xlink:href="#DejaVuSans-432" x="1445.3125"/>
     <use xlink:href="#DejaVuSans-20" x="1504.248047"/>
     <use xlink:href="#DejaVuSans-437" x="1536.035156"/>
     <use xlink:href="#DejaVuSans-430" x="1589.208984"/>
     <use xlink:href="#DejaVuSans-432" x="1650.488281"/>
     <use xlink:href="#DejaVuSans-438" x="1709.423828"/>
     <use xlink:href="#DejaVuSans-441" x="1774.414062"/>
     <use xlink:href="#DejaVuSans-438" x="1829.394531"/>
     <use xlink:href="#DejaVuSans-43c" x="1894.384766"/>
     <use xlink:href="#DejaVuSans-43e" x="1969.824219"/>
     <use xlink:href="#DejaVuSans-441" x="2031.005859"/>
     <use xlink:href="#DejaVuSans-442" x="2085.986328"/>
     <use xlink:href="#DejaVuSans-438" x="2144.238281"/>
     <use xlink:href="#DejaVuSans-20" x="2209.228516"/>
     <use xlink:href="#DejaVuSans-43e" x="2241.015625"/>
     <use xlink:href="#DejaVuSans-442" x="2302.197266"/>
     <use xlink:href="#DejaVuSans-20" x="2360.449219"/>
     <use xlink:href="#DejaVuSans-432" x="2392.236328"/>
     <use xlink:href="#DejaVuSans-440" x="2451.171875"/>
     <use xlink:href="#DejaVuSans-435" x="2514.648438"/>
     <use xlink:href="#DejaVuSans-43c" x="2576.171875"/>
     <use xlink:href="#DejaVuSans-435" x="2651.611328"/>
     <use xlink:href="#DejaVuSans-43d" x="2713.134766"/>
     <use xlink:href="#DejaVuSans-438" x="2778.515625"/>
    </g>
   </g>
   <g id="legend_1">
    <g id="patch_7">
     <path d="M 321.931563 48.905625 
L 449.48 48.905625 
Q 451.48 48.905625 451.48 46.905625 
L 451.48 33.2275 
Q 451.48 31.2275 449.48 31.2275 
L 321.931563 31.2275 
Q 319.931563 31.2275 319.931563 33.2275 
L 319.931563 46.905625 
Q 319.931563 48.905625 321.931563 48.905625 
z
" style="fill: #ffffff; opacity: 0.8; stroke: #cccccc; stroke-linejoin: miter"/>
    </g>
    <g id="line2d_17">
     <path d="M 323.931563 39.325937 
L 333.931563 39.325937 
L 343.931563 39.325937 
" style="fill: none; stroke: #7b68ee; stroke-width: 3; stroke-linecap: square"/>
    </g>
    <g id="text_19">
     <!-- Средняя площадь -->
     <g transform="translate(351.931563 42.825937) scale(0.1 -0.1)">
      <use xlink:href="#DejaVuSans-421"/>
      <use xlink:href="#DejaVuSans-440" x="69.824219"/>
      <use xlink:href="#DejaVuSans-435" x="133.300781"/>
      <use xlink:href="#DejaVuSans-434" x="194.824219"/>
      <use xlink:href="#DejaVuSans-43d" x="263.964844"/>
      <use xlink:href="#DejaVuSans-44f" x="329.345703"/>
      <use xlink:href="#DejaVuSans-44f" x="389.501953"/>
      <use xlink:href="#DejaVuSans-20" x="449.658203"/>
      <use xlink:href="#DejaVuSans-43f" x="481.445312"/>
      <use xlink:href="#DejaVuSans-43b" x="546.826172"/>
      <use xlink:href="#DejaVuSans-43e" x="610.742188"/>
      <use xlink:href="#DejaVuSans-449" x="671.923828"/>
      <use xlink:href="#DejaVuSans-430" x="766.113281"/>
      <use xlink:href="#DejaVuSans-434" x="827.392578"/>
      <use xlink:href="#DejaVuSans-44c" x="896.533203"/>
     </g>
    </g>
   </g>
  </g>
 </g>
 <defs>
  <clipPath id="pcbe1d5ce90">
   <rect x="44.69375" y="26.2275" width="411.78625" height="174.4525"/>
  </clipPath>
 </defs>
</svg>
