<?xml version="1.0" encoding="utf-8" standalone="no"?>
<!DOCTYPE svg PUBLIC "-//W3C//DTD SVG 1.1//EN"
  "http://www.w3.org/Graphics/SVG/1.1/DTD/svg11.dtd">
<svg xmlns:xlink="http://www.w3.org/1999/xlink" width="467.28pt" height="242.64pt" viewBox="0 0 467.28 242.64" xmlns="http://www.w3.org/2000/svg" version="1.1">
 <metadata>
  <rdf:RDF xmlns:dc="http://purl.org/dc/elements/1.1/" xmlns:cc="http://creativecommons.org/ns#" xmlns:rdf="http://www.w3.org/1999/02/22-rdf-syntax-ns#">
   <cc:Work>
    <dc:type rdf:resource="http://purl.org/dc/dcmitype/StillImage"/>
    <dc:date>2024-06-25T11:33:26.321021</dc:date>
    <dc:format>image/svg+xml</dc:format>
    <dc:creator>
     <cc:Agent>
      <dc:title>Matplotlib v3.8.3, https://matplotlib.org/</dc:title>
     </cc:Agent>
    </dc:creator>
   </cc:Work>
  </rdf:RDF>
 </metadata>
 <defs>
  <style type="text/css">*{stroke-linejoin: round; stroke-linecap: butt}</style>
 </defs>
 <g id="figure_1">
  <g id="patch_1">
   <path d="M 0 242.64 
L 467.28 242.64 
L 467.28 0 
L 0 0 
z
" style="fill: #ffffff"/>
  </g>
  <g id="axes_1">
   <g id="patch_2">
    <path d="M 51.08375 200.68 
L 456.48 200.68 
L 456.48 26.2275 
L 51.08375 26.2275 
z
" style="fill: #ffffff"/>
   </g>
   <g id="matplotlib.axis_1">
    <g id="xtick_1">
     <g id="line2d_1">
      <defs>
       <path id="mb0122266db" d="M 0 0 
L 0 3.5 
" style="stroke: #000000; stroke-width: 0.8"/>
      </defs>
      <g>
       <use xlink:href="#mb0122266db" x="51.08375" y="200.68" style="stroke: #000000; stroke-width: 0.8"/>
      </g>
     </g>
     <g id="text_1">
      <!-- 0 -->
      <g transform="translate(47.9025 215.278438) scale(0.1 -0.1)">
       <defs>
        <path id="DejaVuSans-30" d="M 2034 4250 
Q 1547 4250 1301 3770 
Q 1056 3291 1056 2328 
Q 1056 1369 1301 889 
Q 1547 409 2034 409 
Q 2525 409 2770 889 
Q 3016 1369 3016 2328 
Q 3016 3291 2770 3770 
Q 2525 4250 2034 4250 
z
M 2034 4750 
Q 2819 4750 3233 4129 
Q 3647 3509 3647 2328 
Q 3647 1150 3233 529 
Q 2819 -91 2034 -91 
Q 1250 -91 836 529 
Q 422 1150 422 2328 
Q 422 3509 836 4129 
Q 1250 4750 2034 4750 
z
" transform="scale(0.015625)"/>
       </defs>
       <use xlink:href="#DejaVuSans-30"/>
      </g>
     </g>
    </g>
    <g id="xtick_2">
     <g id="line2d_2">
      <g>
       <use xlink:href="#mb0122266db" x="105.317362" y="200.68" style="stroke: #000000; stroke-width: 0.8"/>
      </g>
     </g>
     <g id="text_2">
      <!-- 20 -->
      <g transform="translate(98.954862 215.278438) scale(0.1 -0.1)">
       <defs>
        <path id="DejaVuSans-32" d="M 1228 531 
L 3431 531 
L 3431 0 
L 469 0 
L 469 531 
Q 828 903 1448 1529 
Q 2069 2156 2228 2338 
Q 2531 2678 2651 2914 
Q 2772 3150 2772 3378 
Q 2772 3750 2511 3984 
Q 2250 4219 1831 4219 
Q 1534 4219 1204 4116 
Q 875 4013 500 3803 
L 500 4441 
Q 881 4594 1212 4672 
Q 1544 4750 1819 4750 
Q 2544 4750 2975 4387 
Q 3406 4025 3406 3419 
Q 3406 3131 3298 2873 
Q 3191 2616 2906 2266 
Q 2828 2175 2409 1742 
Q 1991 1309 1228 531 
z
" transform="scale(0.015625)"/>
       </defs>
       <use xlink:href="#DejaVuSans-32"/>
       <use xlink:href="#DejaVuSans-30" x="63.623047"/>
      </g>
     </g>
    </g>
    <g id="xtick_3">
     <g id="line2d_3">
      <g>
       <use xlink:href="#mb0122266db" x="159.550974" y="200.68" style="stroke: #000000; stroke-width: 0.8"/>
      </g>
     </g>
     <g id="text_3">
      <!-- 40 -->
      <g transform="translate(153.188474 215.278438) scale(0.1 -0.1)">
       <defs>
        <path id="DejaVuSans-34" d="M 2419 4116 
L 825 1625 
L 2419 1625 
L 2419 4116 
z
M 2253 4666 
L 3047 4666 
L 3047 1625 
L 3713 1625 
L 3713 1100 
L 3047 1100 
L 3047 0 
L 2419 0 
L 2419 1100 
L 313 1100 
L 313 1709 
L 2253 4666 
z
" transform="scale(0.015625)"/>
       </defs>
       <use xlink:href="#DejaVuSans-34"/>
       <use xlink:href="#DejaVuSans-30" x="63.623047"/>
      </g>
     </g>
    </g>
    <g id="xtick_4">
     <g id="line2d_4">
      <g>
       <use xlink:href="#mb0122266db" x="213.784586" y="200.68" style="stroke: #000000; stroke-width: 0.8"/>
      </g>
     </g>
     <g id="text_4">
      <!-- 60 -->
      <g transform="translate(207.422086 215.278438) scale(0.1 -0.1)">
       <defs>
        <path id="DejaVuSans-36" d="M 2113 2584 
Q 1688 2584 1439 2293 
Q 1191 2003 1191 1497 
Q 1191 994 1439 701 
Q 1688 409 2113 409 
Q 2538 409 2786 701 
Q 3034 994 3034 1497 
Q 3034 2003 2786 2293 
Q 2538 2584 2113 2584 
z
M 3366 4563 
L 3366 3988 
Q 3128 4100 2886 4159 
Q 2644 4219 2406 4219 
Q 1781 4219 1451 3797 
Q 1122 3375 1075 2522 
Q 1259 2794 1537 2939 
Q 1816 3084 2150 3084 
Q 2853 3084 3261 2657 
Q 3669 2231 3669 1497 
Q 3669 778 3244 343 
Q 2819 -91 2113 -91 
Q 1303 -91 875 529 
Q 447 1150 447 2328 
Q 447 3434 972 4092 
Q 1497 4750 2381 4750 
Q 2619 4750 2861 4703 
Q 3103 4656 3366 4563 
z
" transform="scale(0.015625)"/>
       </defs>
       <use xlink:href="#DejaVuSans-36"/>
       <use xlink:href="#DejaVuSans-30" x="63.623047"/>
      </g>
     </g>
    </g>
    <g id="xtick_5">
     <g id="line2d_5">
      <g>
       <use xlink:href="#mb0122266db" x="268.018198" y="200.68" style="stroke: #000000; stroke-width: 0.8"/>
      </g>
     </g>
     <g id="text_5">
      <!-- 80 -->
      <g transform="translate(261.655698 215.278438) scale(0.1 -0.1)">
       <defs>
        <path id="DejaVuSans-38" d="M 2034 2216 
Q 1584 2216 1326 1975 
Q 1069 1734 1069 1313 
Q 1069 891 1326 650 
Q 1584 409 2034 409 
Q 2484 409 2743 651 
Q 3003 894 3003 1313 
Q 3003 1734 2745 1975 
Q 2488 2216 2034 2216 
z
M 1403 2484 
Q 997 2584 770 2862 
Q 544 3141 544 3541 
Q 544 4100 942 4425 
Q 1341 4750 2034 4750 
Q 2731 4750 3128 4425 
Q 3525 4100 3525 3541 
Q 3525 3141 3298 2862 
Q 3072 2584 2669 2484 
Q 3125 2378 3379 2068 
Q 3634 1759 3634 1313 
Q 3634 634 3220 271 
Q 2806 -91 2034 -91 
Q 1263 -91 848 271 
Q 434 634 434 1313 
Q 434 1759 690 2068 
Q 947 2378 1403 2484 
z
M 1172 3481 
Q 1172 3119 1398 2916 
Q 1625 2713 2034 2713 
Q 2441 2713 2670 2916 
Q 2900 3119 2900 3481 
Q 2900 3844 2670 4047 
Q 2441 4250 2034 4250 
Q 1625 4250 1398 4047 
Q 1172 3844 1172 3481 
z
" transform="scale(0.015625)"/>
       </defs>
       <use xlink:href="#DejaVuSans-38"/>
       <use xlink:href="#DejaVuSans-30" x="63.623047"/>
      </g>
     </g>
    </g>
    <g id="xtick_6">
     <g id="line2d_6">
      <g>
       <use xlink:href="#mb0122266db" x="322.25181" y="200.68" style="stroke: #000000; stroke-width: 0.8"/>
      </g>
     </g>
     <g id="text_6">
      <!-- 100 -->
      <g transform="translate(312.70806 215.278438) scale(0.1 -0.1)">
       <defs>
        <path id="DejaVuSans-31" d="M 794 531 
L 1825 531 
L 1825 4091 
L 703 3866 
L 703 4441 
L 1819 4666 
L 2450 4666 
L 2450 531 
L 3481 531 
L 3481 0 
L 794 0 
L 794 531 
z
" transform="scale(0.015625)"/>
       </defs>
       <use xlink:href="#DejaVuSans-31"/>
       <use xlink:href="#DejaVuSans-30" x="63.623047"/>
       <use xlink:href="#DejaVuSans-30" x="127.246094"/>
      </g>
     </g>
    </g>
    <g id="xtick_7">
     <g id="line2d_7">
      <g>
       <use xlink:href="#mb0122266db" x="376.485422" y="200.68" style="stroke: #000000; stroke-width: 0.8"/>
      </g>
     </g>
     <g id="text_7">
      <!-- 120 -->
      <g transform="translate(366.941672 215.278438) scale(0.1 -0.1)">
       <use xlink:href="#DejaVuSans-31"/>
       <use xlink:href="#DejaVuSans-32" x="63.623047"/>
       <use xlink:href="#DejaVuSans-30" x="127.246094"/>
      </g>
     </g>
    </g>
    <g id="xtick_8">
     <g id="line2d_8">
      <g>
       <use xlink:href="#mb0122266db" x="430.719034" y="200.68" style="stroke: #000000; stroke-width: 0.8"/>
      </g>
     </g>
     <g id="text_8">
      <!-- 140 -->
      <g transform="translate(421.175284 215.278438) scale(0.1 -0.1)">
       <use xlink:href="#DejaVuSans-31"/>
       <use xlink:href="#DejaVuSans-34" x="63.623047"/>
       <use xlink:href="#DejaVuSans-30" x="127.246094"/>
      </g>
     </g>
    </g>
    <g id="text_9">
     <!-- Время, c -->
     <g transform="translate(231.393594 228.956563) scale(0.1 -0.1)">
      <defs>
       <path id="DejaVuSans-412" d="M 1259 2228 
L 1259 519 
L 2272 519 
Q 2781 519 3026 730 
Q 3272 941 3272 1375 
Q 3272 1813 3026 2020 
Q 2781 2228 2272 2228 
L 1259 2228 
z
M 1259 4147 
L 1259 2741 
L 2194 2741 
Q 2656 2741 2882 2914 
Q 3109 3088 3109 3444 
Q 3109 3797 2882 3972 
Q 2656 4147 2194 4147 
L 1259 4147 
z
M 628 4666 
L 2241 4666 
Q 2963 4666 3353 4366 
Q 3744 4066 3744 3513 
Q 3744 3084 3544 2831 
Q 3344 2578 2956 2516 
Q 3422 2416 3680 2098 
Q 3938 1781 3938 1306 
Q 3938 681 3513 340 
Q 3088 0 2303 0 
L 628 0 
L 628 4666 
z
" transform="scale(0.015625)"/>
       <path id="DejaVuSans-440" d="M 1159 525 
L 1159 -1331 
L 581 -1331 
L 581 3500 
L 1159 3500 
L 1159 2969 
Q 1341 3281 1617 3432 
Q 1894 3584 2278 3584 
Q 2916 3584 3314 3078 
Q 3713 2572 3713 1747 
Q 3713 922 3314 415 
Q 2916 -91 2278 -91 
Q 1894 -91 1617 61 
Q 1341 213 1159 525 
z
M 3116 1747 
Q 3116 2381 2855 2742 
Q 2594 3103 2138 3103 
Q 1681 3103 1420 2742 
Q 1159 2381 1159 1747 
Q 1159 1113 1420 752 
Q 1681 391 2138 391 
Q 2594 391 2855 752 
Q 3116 1113 3116 1747 
z
" transform="scale(0.015625)"/>
       <path id="DejaVuSans-435" d="M 3597 1894 
L 3597 1613 
L 953 1613 
Q 991 1019 1311 708 
Q 1631 397 2203 397 
Q 2534 397 2845 478 
Q 3156 559 3463 722 
L 3463 178 
Q 3153 47 2828 -22 
Q 2503 -91 2169 -91 
Q 1331 -91 842 396 
Q 353 884 353 1716 
Q 353 2575 817 3079 
Q 1281 3584 2069 3584 
Q 2775 3584 3186 3129 
Q 3597 2675 3597 1894 
z
M 3022 2063 
Q 3016 2534 2758 2815 
Q 2500 3097 2075 3097 
Q 1594 3097 1305 2825 
Q 1016 2553 972 2059 
L 3022 2063 
z
" transform="scale(0.015625)"/>
       <path id="DejaVuSans-43c" d="M 581 3500 
L 1422 3500 
L 2416 1156 
L 3413 3500 
L 4247 3500 
L 4247 0 
L 3669 0 
L 3669 2950 
L 2703 672 
L 2128 672 
L 1159 2950 
L 1159 0 
L 581 0 
L 581 3500 
z
" transform="scale(0.015625)"/>
       <path id="DejaVuSans-44f" d="M 1181 2491 
Q 1181 2231 1381 2084 
Q 1581 1938 1953 1938 
L 2728 1938 
L 2728 3041 
L 1953 3041 
Q 1581 3041 1381 2897 
Q 1181 2753 1181 2491 
z
M 363 0 
L 1431 1534 
Q 1069 1616 828 1830 
Q 588 2044 588 2491 
Q 588 2997 923 3248 
Q 1259 3500 1938 3500 
L 3306 3500 
L 3306 0 
L 2728 0 
L 2728 1478 
L 2013 1478 
L 981 0 
L 363 0 
z
" transform="scale(0.015625)"/>
       <path id="DejaVuSans-2c" d="M 750 794 
L 1409 794 
L 1409 256 
L 897 -744 
L 494 -744 
L 750 256 
L 750 794 
z
" transform="scale(0.015625)"/>
       <path id="DejaVuSans-20" transform="scale(0.015625)"/>
       <path id="DejaVuSans-63" d="M 3122 3366 
L 3122 2828 
Q 2878 2963 2633 3030 
Q 2388 3097 2138 3097 
Q 1578 3097 1268 2742 
Q 959 2388 959 1747 
Q 959 1106 1268 751 
Q 1578 397 2138 397 
Q 2388 397 2633 464 
Q 2878 531 3122 666 
L 3122 134 
Q 2881 22 2623 -34 
Q 2366 -91 2075 -91 
Q 1284 -91 818 406 
Q 353 903 353 1747 
Q 353 2603 823 3093 
Q 1294 3584 2113 3584 
Q 2378 3584 2631 3529 
Q 2884 3475 3122 3366 
z
" transform="scale(0.015625)"/>
      </defs>
      <use xlink:href="#DejaVuSans-412"/>
      <use xlink:href="#DejaVuSans-440" x="68.603516"/>
      <use xlink:href="#DejaVuSans-435" x="132.080078"/>
      <use xlink:href="#DejaVuSans-43c" x="193.603516"/>
      <use xlink:href="#DejaVuSans-44f" x="269.042969"/>
      <use xlink:href="#DejaVuSans-2c" x="329.199219"/>
      <use xlink:href="#DejaVuSans-20" x="360.986328"/>
      <use xlink:href="#DejaVuSans-63" x="392.773438"/>
     </g>
    </g>
   </g>
   <g id="matplotlib.axis_2">
    <g id="ytick_1">
     <g id="line2d_9">
      <defs>
       <path id="m3734103ae1" d="M 0 0 
L -3.5 0 
" style="stroke: #000000; stroke-width: 0.8"/>
      </defs>
      <g>
       <use xlink:href="#m3734103ae1" x="51.08375" y="176.883675" style="stroke: #000000; stroke-width: 0.8"/>
      </g>
     </g>
     <g id="text_10">
      <!-- 50 -->
      <g transform="translate(31.35875 180.682894) scale(0.1 -0.1)">
       <defs>
        <path id="DejaVuSans-35" d="M 691 4666 
L 3169 4666 
L 3169 4134 
L 1269 4134 
L 1269 2991 
Q 1406 3038 1543 3061 
Q 1681 3084 1819 3084 
Q 2600 3084 3056 2656 
Q 3513 2228 3513 1497 
Q 3513 744 3044 326 
Q 2575 -91 1722 -91 
Q 1428 -91 1123 -41 
Q 819 9 494 109 
L 494 744 
Q 775 591 1075 516 
Q 1375 441 1709 441 
Q 2250 441 2565 725 
Q 2881 1009 2881 1497 
Q 2881 1984 2565 2268 
Q 2250 2553 1709 2553 
Q 1456 2553 1204 2497 
Q 953 2441 691 2322 
L 691 4666 
z
" transform="scale(0.015625)"/>
       </defs>
       <use xlink:href="#DejaVuSans-35"/>
       <use xlink:href="#DejaVuSans-30" x="63.623047"/>
      </g>
     </g>
    </g>
    <g id="ytick_2">
     <g id="line2d_10">
      <g>
       <use xlink:href="#m3734103ae1" x="51.08375" y="152.719452" style="stroke: #000000; stroke-width: 0.8"/>
      </g>
     </g>
     <g id="text_11">
      <!-- 100 -->
      <g transform="translate(24.99625 156.51867) scale(0.1 -0.1)">
       <use xlink:href="#DejaVuSans-31"/>
       <use xlink:href="#DejaVuSans-30" x="63.623047"/>
       <use xlink:href="#DejaVuSans-30" x="127.246094"/>
      </g>
     </g>
    </g>
    <g id="ytick_3">
     <g id="line2d_11">
      <g>
       <use xlink:href="#m3734103ae1" x="51.08375" y="128.555228" style="stroke: #000000; stroke-width: 0.8"/>
      </g>
     </g>
     <g id="text_12">
      <!-- 150 -->
      <g transform="translate(24.99625 132.354447) scale(0.1 -0.1)">
       <use xlink:href="#DejaVuSans-31"/>
       <use xlink:href="#DejaVuSans-35" x="63.623047"/>
       <use xlink:href="#DejaVuSans-30" x="127.246094"/>
      </g>
     </g>
    </g>
    <g id="ytick_4">
     <g id="line2d_12">
      <g>
       <use xlink:href="#m3734103ae1" x="51.08375" y="104.391005" style="stroke: #000000; stroke-width: 0.8"/>
      </g>
     </g>
     <g id="text_13">
      <!-- 200 -->
      <g transform="translate(24.99625 108.190224) scale(0.1 -0.1)">
       <use xlink:href="#DejaVuSans-32"/>
       <use xlink:href="#DejaVuSans-30" x="63.623047"/>
       <use xlink:href="#DejaVuSans-30" x="127.246094"/>
      </g>
     </g>
    </g>
    <g id="ytick_5">
     <g id="line2d_13">
      <g>
       <use xlink:href="#m3734103ae1" x="51.08375" y="80.226782" style="stroke: #000000; stroke-width: 0.8"/>
      </g>
     </g>
     <g id="text_14">
      <!-- 250 -->
      <g transform="translate(24.99625 84.026) scale(0.1 -0.1)">
       <use xlink:href="#DejaVuSans-32"/>
       <use xlink:href="#DejaVuSans-35" x="63.623047"/>
       <use xlink:href="#DejaVuSans-30" x="127.246094"/>
      </g>
     </g>
    </g>
    <g id="ytick_6">
     <g id="line2d_14">
      <g>
       <use xlink:href="#m3734103ae1" x="51.08375" y="56.062558" style="stroke: #000000; stroke-width: 0.8"/>
      </g>
     </g>
     <g id="text_15">
      <!-- 300 -->
      <g transform="translate(24.99625 59.861777) scale(0.1 -0.1)">
       <defs>
        <path id="DejaVuSans-33" d="M 2597 2516 
Q 3050 2419 3304 2112 
Q 3559 1806 3559 1356 
Q 3559 666 3084 287 
Q 2609 -91 1734 -91 
Q 1441 -91 1130 -33 
Q 819 25 488 141 
L 488 750 
Q 750 597 1062 519 
Q 1375 441 1716 441 
Q 2309 441 2620 675 
Q 2931 909 2931 1356 
Q 2931 1769 2642 2001 
Q 2353 2234 1838 2234 
L 1294 2234 
L 1294 2753 
L 1863 2753 
Q 2328 2753 2575 2939 
Q 2822 3125 2822 3475 
Q 2822 3834 2567 4026 
Q 2313 4219 1838 4219 
Q 1578 4219 1281 4162 
Q 984 4106 628 3988 
L 628 4550 
Q 988 4650 1302 4700 
Q 1616 4750 1894 4750 
Q 2613 4750 3031 4423 
Q 3450 4097 3450 3541 
Q 3450 3153 3228 2886 
Q 3006 2619 2597 2516 
z
" transform="scale(0.015625)"/>
       </defs>
       <use xlink:href="#DejaVuSans-33"/>
       <use xlink:href="#DejaVuSans-30" x="63.623047"/>
       <use xlink:href="#DejaVuSans-30" x="127.246094"/>
      </g>
     </g>
    </g>
    <g id="ytick_7">
     <g id="line2d_15">
      <g>
       <use xlink:href="#m3734103ae1" x="51.08375" y="31.898335" style="stroke: #000000; stroke-width: 0.8"/>
      </g>
     </g>
     <g id="text_16">
      <!-- 350 -->
      <g transform="translate(24.99625 35.697554) scale(0.1 -0.1)">
       <use xlink:href="#DejaVuSans-33"/>
       <use xlink:href="#DejaVuSans-35" x="63.623047"/>
       <use xlink:href="#DejaVuSans-30" x="127.246094"/>
      </g>
     </g>
    </g>
    <g id="text_17">
     <!-- Средняя площадь области, мкм² -->
     <g transform="translate(18.916563 199.877969) rotate(-90) scale(0.1 -0.1)">
      <defs>
       <path id="DejaVuSans-421" d="M 4122 4306 
L 4122 3641 
Q 3803 3938 3442 4084 
Q 3081 4231 2675 4231 
Q 1875 4231 1450 3742 
Q 1025 3253 1025 2328 
Q 1025 1406 1450 917 
Q 1875 428 2675 428 
Q 3081 428 3442 575 
Q 3803 722 4122 1019 
L 4122 359 
Q 3791 134 3420 21 
Q 3050 -91 2638 -91 
Q 1578 -91 968 557 
Q 359 1206 359 2328 
Q 359 3453 968 4101 
Q 1578 4750 2638 4750 
Q 3056 4750 3426 4639 
Q 3797 4528 4122 4306 
z
" transform="scale(0.015625)"/>
       <path id="DejaVuSans-434" d="M 1384 459 
L 3053 459 
L 3053 3041 
L 1844 3041 
L 1844 2603 
Q 1844 1316 1475 628 
L 1384 459 
z
M 550 459 
Q 834 584 959 850 
Q 1266 1509 1266 2838 
L 1266 3500 
L 3631 3500 
L 3631 459 
L 4091 459 
L 4091 -884 
L 3631 -884 
L 3631 0 
L 794 0 
L 794 -884 
L 334 -884 
L 334 459 
L 550 459 
z
" transform="scale(0.015625)"/>
       <path id="DejaVuSans-43d" d="M 581 3500 
L 1159 3500 
L 1159 2072 
L 3025 2072 
L 3025 3500 
L 3603 3500 
L 3603 0 
L 3025 0 
L 3025 1613 
L 1159 1613 
L 1159 0 
L 581 0 
L 581 3500 
z
" transform="scale(0.015625)"/>
       <path id="DejaVuSans-43f" d="M 3603 3500 
L 3603 0 
L 3025 0 
L 3025 3041 
L 1159 3041 
L 1159 0 
L 581 0 
L 581 3500 
L 3603 3500 
z
" transform="scale(0.015625)"/>
       <path id="DejaVuSans-43b" d="M 238 0 
L 238 478 
Q 806 566 981 959 
Q 1194 1513 1194 2928 
L 1194 3500 
L 3559 3500 
L 3559 0 
L 2984 0 
L 2984 3041 
L 1769 3041 
L 1769 2694 
Q 1769 1344 1494 738 
Q 1200 91 238 0 
z
" transform="scale(0.015625)"/>
       <path id="DejaVuSans-43e" d="M 1959 3097 
Q 1497 3097 1228 2736 
Q 959 2375 959 1747 
Q 959 1119 1226 758 
Q 1494 397 1959 397 
Q 2419 397 2687 759 
Q 2956 1122 2956 1747 
Q 2956 2369 2687 2733 
Q 2419 3097 1959 3097 
z
M 1959 3584 
Q 2709 3584 3137 3096 
Q 3566 2609 3566 1747 
Q 3566 888 3137 398 
Q 2709 -91 1959 -91 
Q 1206 -91 779 398 
Q 353 888 353 1747 
Q 353 2609 779 3096 
Q 1206 3584 1959 3584 
z
" transform="scale(0.015625)"/>
       <path id="DejaVuSans-449" d="M 5275 0 
L 581 0 
L 581 3500 
L 1159 3500 
L 1159 459 
L 2638 459 
L 2638 3500 
L 3216 3500 
L 3216 459 
L 4697 459 
L 4697 3500 
L 5275 3500 
L 5275 459 
L 5734 459 
L 5734 -884 
L 5275 -884 
L 5275 0 
z
" transform="scale(0.015625)"/>
       <path id="DejaVuSans-430" d="M 2194 1759 
Q 1497 1759 1228 1600 
Q 959 1441 959 1056 
Q 959 750 1161 570 
Q 1363 391 1709 391 
Q 2188 391 2477 730 
Q 2766 1069 2766 1631 
L 2766 1759 
L 2194 1759 
z
M 3341 1997 
L 3341 0 
L 2766 0 
L 2766 531 
Q 2569 213 2275 61 
Q 1981 -91 1556 -91 
Q 1019 -91 701 211 
Q 384 513 384 1019 
Q 384 1609 779 1909 
Q 1175 2209 1959 2209 
L 2766 2209 
L 2766 2266 
Q 2766 2663 2505 2880 
Q 2244 3097 1772 3097 
Q 1472 3097 1187 3025 
Q 903 2953 641 2809 
L 641 3341 
Q 956 3463 1253 3523 
Q 1550 3584 1831 3584 
Q 2591 3584 2966 3190 
Q 3341 2797 3341 1997 
z
" transform="scale(0.015625)"/>
       <path id="DejaVuSans-44c" d="M 2781 1038 
Q 2781 1319 2576 1466 
Q 2372 1613 1978 1613 
L 1159 1613 
L 1159 459 
L 1978 459 
Q 2372 459 2576 607 
Q 2781 756 2781 1038 
z
M 581 3500 
L 1159 3500 
L 1159 2072 
L 2003 2072 
Q 2672 2072 3033 1817 
Q 3394 1563 3394 1038 
Q 3394 513 3033 256 
Q 2672 0 2003 0 
L 581 0 
L 581 3500 
z
" transform="scale(0.015625)"/>
       <path id="DejaVuSans-431" d="M 1991 3584 
Q 2741 3584 3169 3096 
Q 3597 2609 3597 1747 
Q 3597 888 3169 398 
Q 2741 -91 1991 -91 
Q 1238 -91 822 384 
Q 406 859 384 1747 
L 366 2463 
Q 350 2834 350 2963 
Q 350 3463 531 3831 
Q 816 4409 1308 4659 
Q 1800 4909 2625 4916 
Q 3006 4919 3175 4972 
L 3334 4516 
Q 3181 4453 3041 4450 
L 2259 4397 
Q 1866 4369 1628 4231 
Q 1006 3866 947 3388 
L 925 3213 
Q 1331 3584 1991 3584 
z
M 1991 3097 
Q 1528 3097 1259 2736 
Q 991 2375 991 1747 
Q 991 1119 1258 758 
Q 1525 397 1991 397 
Q 2450 397 2719 759 
Q 2988 1122 2988 1747 
Q 2988 2369 2719 2733 
Q 2450 3097 1991 3097 
z
" transform="scale(0.015625)"/>
       <path id="DejaVuSans-441" d="M 3122 3366 
L 3122 2828 
Q 2878 2963 2633 3030 
Q 2388 3097 2138 3097 
Q 1578 3097 1268 2742 
Q 959 2388 959 1747 
Q 959 1106 1268 751 
Q 1578 397 2138 397 
Q 2388 397 2633 464 
Q 2878 531 3122 666 
L 3122 134 
Q 2881 22 2623 -34 
Q 2366 -91 2075 -91 
Q 1284 -91 818 406 
Q 353 903 353 1747 
Q 353 2603 823 3093 
Q 1294 3584 2113 3584 
Q 2378 3584 2631 3529 
Q 2884 3475 3122 3366 
z
" transform="scale(0.015625)"/>
       <path id="DejaVuSans-442" d="M 188 3500 
L 3541 3500 
L 3541 3041 
L 2147 3041 
L 2147 0 
L 1581 0 
L 1581 3041 
L 188 3041 
L 188 3500 
z
" transform="scale(0.015625)"/>
       <path id="DejaVuSans-438" d="M 3578 3500 
L 3578 0 
L 3006 0 
L 3006 2809 
L 1319 0 
L 581 0 
L 581 3500 
L 1153 3500 
L 1153 697 
L 2838 3500 
L 3578 3500 
z
" transform="scale(0.015625)"/>
       <path id="DejaVuSans-43a" d="M 581 3500 
L 1153 3500 
L 1153 1856 
L 2775 3500 
L 3481 3500 
L 2144 2147 
L 3653 0 
L 3009 0 
L 1769 1766 
L 1153 1141 
L 1153 0 
L 581 0 
L 581 3500 
z
" transform="scale(0.015625)"/>
       <path id="DejaVuSans-b2" d="M 838 2444 
L 2163 2444 
L 2163 2088 
L 294 2088 
L 294 2431 
Q 400 2528 597 2703 
Q 1672 3656 1672 3950 
Q 1672 4156 1509 4282 
Q 1347 4409 1081 4409 
Q 919 4409 728 4354 
Q 538 4300 313 4191 
L 313 4575 
Q 553 4663 761 4706 
Q 969 4750 1147 4750 
Q 1600 4750 1872 4544 
Q 2144 4338 2144 4000 
Q 2144 3566 1109 2678 
Q 934 2528 838 2444 
z
" transform="scale(0.015625)"/>
      </defs>
      <use xlink:href="#DejaVuSans-421"/>
      <use xlink:href="#DejaVuSans-440" x="69.824219"/>
      <use xlink:href="#DejaVuSans-435" x="133.300781"/>
      <use xlink:href="#DejaVuSans-434" x="194.824219"/>
      <use xlink:href="#DejaVuSans-43d" x="263.964844"/>
      <use xlink:href="#DejaVuSans-44f" x="329.345703"/>
      <use xlink:href="#DejaVuSans-44f" x="389.501953"/>
      <use xlink:href="#DejaVuSans-20" x="449.658203"/>
      <use xlink:href="#DejaVuSans-43f" x="481.445312"/>
      <use xlink:href="#DejaVuSans-43b" x="546.826172"/>
      <use xlink:href="#DejaVuSans-43e" x="610.742188"/>
      <use xlink:href="#DejaVuSans-449" x="671.923828"/>
      <use xlink:href="#DejaVuSans-430" x="766.113281"/>
      <use xlink:href="#DejaVuSans-434" x="827.392578"/>
      <use xlink:href="#DejaVuSans-44c" x="896.533203"/>
      <use xlink:href="#DejaVuSans-20" x="955.46875"/>
      <use xlink:href="#DejaVuSans-43e" x="987.255859"/>
      <use xlink:href="#DejaVuSans-431" x="1048.4375"/>
      <use xlink:href="#DejaVuSans-43b" x="1110.107422"/>
      <use xlink:href="#DejaVuSans-430" x="1174.023438"/>
      <use xlink:href="#DejaVuSans-441" x="1235.302734"/>
      <use xlink:href="#DejaVuSans-442" x="1290.283203"/>
      <use xlink:href="#DejaVuSans-438" x="1348.535156"/>
      <use xlink:href="#DejaVuSans-2c" x="1413.525391"/>
      <use xlink:href="#DejaVuSans-20" x="1445.3125"/>
      <use xlink:href="#DejaVuSans-43c" x="1477.099609"/>
      <use xlink:href="#DejaVuSans-43a" x="1552.539062"/>
      <use xlink:href="#DejaVuSans-43c" x="1612.939453"/>
      <use xlink:href="#DejaVuSans-b2" x="1688.378906"/>
     </g>
    </g>
   </g>
   <g id="line2d_16">
    <path d="M 51.08375 163.757725 
L 52.43959 161.783126 
L 53.795431 159.466697 
L 55.151271 154.238152 
L 56.507111 156.58166 
L 57.862952 153.694939 
L 59.218792 146.277517 
L 60.574632 145.418468 
L 63.286313 127.266965 
L 64.642153 101.628672 
L 65.997993 88.242039 
L 67.353834 87.799585 
L 68.709674 50.211181 
L 70.065514 50.132213 
L 71.421355 72.623287 
L 72.777195 102.09319 
L 74.133035 26.2275 
L 75.488875 59.119086 
L 76.844716 81.478326 
L 78.200556 84.019902 
L 79.556396 121.262297 
L 80.912237 147.225532 
L 82.268077 144.704016 
L 83.623917 172.777723 
L 84.979758 174.590505 
L 86.335598 180.886581 
L 87.691438 182.386265 
L 89.047278 180.907064 
L 90.403119 184.474517 
L 91.758959 187.626882 
L 93.114799 187.143425 
L 95.82648 190.258527 
L 97.18232 191.343886 
L 98.538161 190.873198 
L 101.249841 192.187683 
L 102.605681 195.42761 
L 103.961522 195.295348 
L 105.317362 195.567596 
L 108.029043 196.799167 
L 109.384883 196.856832 
L 110.740723 196.772752 
L 112.096564 197.275284 
L 113.452404 197.49648 
L 114.808244 197.539604 
L 116.164084 197.36003 
L 117.519925 197.456771 
L 118.875765 197.763282 
L 120.231605 197.841018 
L 122.943286 197.594207 
L 129.722487 198.319691 
L 131.078328 198.257113 
L 133.790008 198.658039 
L 139.21337 198.358945 
L 140.56921 198.04258 
L 147.348411 197.900733 
L 150.060092 197.713792 
L 151.415932 197.862361 
L 152.771773 197.43302 
L 154.127613 197.216697 
L 155.483453 197.558524 
L 156.839293 198.091285 
L 162.262655 198.266394 
L 164.974335 197.507442 
L 166.330176 196.547411 
L 167.686016 196.577935 
L 169.041856 195.750949 
L 170.397696 194.605963 
L 171.753537 194.63932 
L 173.109377 194.394895 
L 174.465217 194.756196 
L 175.821058 194.033255 
L 177.176898 191.868309 
L 178.532738 192.210385 
L 179.888579 191.11093 
L 181.244419 191.609145 
L 182.600259 191.319086 
L 183.956099 192.160692 
L 185.31194 193.931887 
L 186.66778 194.675455 
L 188.02362 194.566712 
L 189.379461 196.01928 
L 190.735301 196.400894 
L 192.091141 196.603623 
L 193.446982 197.096349 
L 194.802822 197.432823 
L 196.158662 197.166508 
L 197.514503 197.552505 
L 200.226183 197.399607 
L 201.582023 197.976536 
L 202.937864 198.267079 
L 204.293704 198.168816 
L 205.649544 197.637957 
L 207.005385 197.582392 
L 208.361225 197.855305 
L 209.717065 197.686733 
L 211.072906 197.938312 
L 212.428746 197.548053 
L 213.784586 197.322464 
L 216.496267 198.329675 
L 220.563788 198.733332 
L 221.919628 198.551737 
L 223.275468 198.514123 
L 224.631309 198.622466 
L 227.342989 198.085564 
L 228.698829 198.07808 
L 230.05467 197.699014 
L 234.122191 197.729498 
L 235.478031 197.148356 
L 238.189712 197.717754 
L 239.545552 197.924648 
L 242.257232 197.856519 
L 243.613073 198.073125 
L 246.324753 198.001207 
L 247.680594 198.498391 
L 251.748115 198.515243 
L 253.103955 198.869309 
L 254.459795 198.928029 
L 255.815635 199.112252 
L 257.171476 199.470153 
L 258.527316 199.620772 
L 259.883156 199.534046 
L 266.662358 200.095096 
L 269.374038 200.104716 
L 272.085719 199.993339 
L 273.441559 199.686027 
L 277.50908 199.501898 
L 278.864921 199.272986 
L 280.220761 199.362708 
L 284.288282 199.036958 
L 285.644122 199.169697 
L 288.355803 198.756431 
L 292.423324 199.011098 
L 295.135004 199.651486 
L 297.846685 199.942014 
L 308.693407 199.743675 
L 310.049247 199.510071 
L 311.405088 199.547638 
L 312.760928 199.733652 
L 314.116768 199.571736 
L 315.472609 199.732649 
L 319.54013 199.626975 
L 322.25181 199.774603 
L 323.607651 200.040779 
L 330.386852 200.31776 
L 331.742692 200.266452 
L 334.454373 199.787688 
L 335.810213 199.652705 
L 337.166054 199.685312 
L 339.877734 198.677618 
L 341.233574 198.477993 
L 342.589415 198.004005 
L 343.945255 197.828015 
L 345.301095 198.295961 
L 346.656936 198.308238 
L 348.012776 198.134299 
L 350.724457 198.374061 
L 352.080297 198.445526 
L 354.791977 199.009284 
L 356.147818 199.463892 
L 357.503658 199.514989 
L 358.859498 199.782401 
L 362.927019 199.88585 
L 364.28286 199.923765 
L 365.6387 199.641158 
L 372.417901 199.939791 
L 375.129582 199.915904 
L 376.485422 199.991418 
L 379.197103 199.984668 
L 380.552943 199.97131 
L 383.264624 200.224772 
L 391.399666 199.54835 
L 394.111346 199.534897 
L 395.467186 199.403505 
L 398.178867 199.510588 
L 400.890548 199.782551 
L 403.602228 199.876384 
L 404.958069 199.911687 
L 406.313909 199.665377 
L 409.025589 199.609751 
L 411.73727 199.732383 
L 413.09311 200.144778 
L 423.939833 200.583961 
L 426.651513 200.645935 
L 430.719034 200.647698 
L 433.430715 200.609562 
L 449.700798 200.479757 
L 452.412479 200.346898 
L 456.48 200.369702 
L 456.48 200.369702 
" clip-path="url(#pd0d3c15de2)" style="fill: none; stroke: #7b68ee; stroke-width: 3; stroke-linecap: square"/>
   </g>
   <g id="patch_3">
    <path d="M 51.08375 200.68 
L 51.08375 26.2275 
" style="fill: none; stroke: #000000; stroke-width: 0.8; stroke-linejoin: miter; stroke-linecap: square"/>
   </g>
   <g id="patch_4">
    <path d="M 456.48 200.68 
L 456.48 26.2275 
" style="fill: none; stroke: #000000; stroke-width: 0.8; stroke-linejoin: miter; stroke-linecap: square"/>
   </g>
   <g id="patch_5">
    <path d="M 51.08375 200.68 
L 456.48 200.68 
" style="fill: none; stroke: #000000; stroke-width: 0.8; stroke-linejoin: miter; stroke-linecap: square"/>
   </g>
   <g id="patch_6">
    <path d="M 51.08375 26.2275 
L 456.48 26.2275 
" style="fill: none; stroke: #000000; stroke-width: 0.8; stroke-linejoin: miter; stroke-linecap: square"/>
   </g>
   <g id="text_18">
    <!-- Средняя площадь области в зависимости от времени -->
    <g transform="translate(83.170938 20.2275) scale(0.12 -0.12)">
     <defs>
      <path id="DejaVuSans-432" d="M 1156 1613 
L 1156 459 
L 1975 459 
Q 2369 459 2575 607 
Q 2781 756 2781 1038 
Q 2781 1319 2575 1466 
Q 2369 1613 1975 1613 
L 1156 1613 
z
M 1156 3041 
L 1156 2072 
L 1913 2072 
Q 2238 2072 2444 2201 
Q 2650 2331 2650 2563 
Q 2650 2794 2444 2917 
Q 2238 3041 1913 3041 
L 1156 3041 
z
M 581 3500 
L 1950 3500 
Q 2566 3500 2897 3275 
Q 3228 3050 3228 2634 
Q 3228 2313 3059 2123 
Q 2891 1934 2559 1888 
Q 2956 1813 3175 1575 
Q 3394 1338 3394 981 
Q 3394 513 3033 256 
Q 2672 0 2003 0 
L 581 0 
L 581 3500 
z
" transform="scale(0.015625)"/>
      <path id="DejaVuSans-437" d="M 2206 1888 
Q 2594 1813 2809 1584 
Q 3025 1356 3025 1019 
Q 3025 478 2622 193 
Q 2219 -91 1475 -91 
Q 1225 -91 961 -47 
Q 697 -3 416 84 
L 416 619 
Q 638 503 903 445 
Q 1169 388 1459 388 
Q 1931 388 2195 563 
Q 2459 738 2459 1019 
Q 2459 1294 2225 1461 
Q 1991 1628 1563 1628 
L 1100 1628 
L 1100 2103 
L 1584 2103 
Q 1947 2103 2158 2242 
Q 2369 2381 2369 2600 
Q 2369 2800 2151 2944 
Q 1934 3088 1563 3088 
Q 1341 3088 1089 3047 
Q 838 3006 534 2916 
L 534 3438 
Q 841 3513 1106 3550 
Q 1372 3588 1609 3588 
Q 2222 3588 2576 3342 
Q 2931 3097 2931 2656 
Q 2931 2366 2743 2164 
Q 2556 1963 2206 1888 
z
" transform="scale(0.015625)"/>
     </defs>
     <use xlink:href="#DejaVuSans-421"/>
     <use xlink:href="#DejaVuSans-440" x="69.824219"/>
     <use xlink:href="#DejaVuSans-435" x="133.300781"/>
     <use xlink:href="#DejaVuSans-434" x="194.824219"/>
     <use xlink:href="#DejaVuSans-43d" x="263.964844"/>
     <use xlink:href="#DejaVuSans-44f" x="329.345703"/>
     <use xlink:href="#DejaVuSans-44f" x="389.501953"/>
     <use xlink:href="#DejaVuSans-20" x="449.658203"/>
     <use xlink:href="#DejaVuSans-43f" x="481.445312"/>
     <use xlink:href="#DejaVuSans-43b" x="546.826172"/>
     <use xlink:href="#DejaVuSans-43e" x="610.742188"/>
     <use xlink:href="#DejaVuSans-449" x="671.923828"/>
     <use xlink:href="#DejaVuSans-430" x="766.113281"/>
     <use xlink:href="#DejaVuSans-434" x="827.392578"/>
     <use xlink:href="#DejaVuSans-44c" x="896.533203"/>
     <use xlink:href="#DejaVuSans-20" x="955.46875"/>
     <use xlink:href="#DejaVuSans-43e" x="987.255859"/>
     <use xlink:href="#DejaVuSans-431" x="1048.4375"/>
     <use xlink:href="#DejaVuSans-43b" x="1110.107422"/>
     <use xlink:href="#DejaVuSans-430" x="1174.023438"/>
     <use xlink:href="#DejaVuSans-441" x="1235.302734"/>
     <use xlink:href="#DejaVuSans-442" x="1290.283203"/>
     <use xlink:href="#DejaVuSans-438" x="1348.535156"/>
     <use xlink:href="#DejaVuSans-20" x="1413.525391"/>
     <use xlink:href="#DejaVuSans-432" x="1445.3125"/>
     <use xlink:href="#DejaVuSans-20" x="1504.248047"/>
     <use xlink:href="#DejaVuSans-437" x="1536.035156"/>
     <use xlink:href="#DejaVuSans-430" x="1589.208984"/>
     <use xlink:href="#DejaVuSans-432" x="1650.488281"/>
     <use xlink:href="#DejaVuSans-438" x="1709.423828"/>
     <use xlink:href="#DejaVuSans-441" x="1774.414062"/>
     <use xlink:href="#DejaVuSans-438" x="1829.394531"/>
     <use xlink:href="#DejaVuSans-43c" x="1894.384766"/>
     <use xlink:href="#DejaVuSans-43e" x="1969.824219"/>
     <use xlink:href="#DejaVuSans-441" x="2031.005859"/>
     <use xlink:href="#DejaVuSans-442" x="2085.986328"/>
     <use xlink:href="#DejaVuSans-438" x="2144.238281"/>
     <use xlink:href="#DejaVuSans-20" x="2209.228516"/>
     <use xlink:href="#DejaVuSans-43e" x="2241.015625"/>
     <use xlink:href="#DejaVuSans-442" x="2302.197266"/>
     <use xlink:href="#DejaVuSans-20" x="2360.449219"/>
     <use xlink:href="#DejaVuSans-432" x="2392.236328"/>
     <use xlink:href="#DejaVuSans-440" x="2451.171875"/>
     <use xlink:href="#DejaVuSans-435" x="2514.648438"/>
     <use xlink:href="#DejaVuSans-43c" x="2576.171875"/>
     <use xlink:href="#DejaVuSans-435" x="2651.611328"/>
     <use xlink:href="#DejaVuSans-43d" x="2713.134766"/>
     <use xlink:href="#DejaVuSans-438" x="2778.515625"/>
    </g>
   </g>
   <g id="legend_1">
    <g id="patch_7">
     <path d="M 321.931563 48.905625 
L 449.48 48.905625 
Q 451.48 48.905625 451.48 46.905625 
L 451.48 33.2275 
Q 451.48 31.2275 449.48 31.2275 
L 321.931563 31.2275 
Q 319.931563 31.2275 319.931563 33.2275 
L 319.931563 46.905625 
Q 319.931563 48.905625 321.931563 48.905625 
z
" style="fill: #ffffff; opacity: 0.8; stroke: #cccccc; stroke-linejoin: miter"/>
    </g>
    <g id="line2d_17">
     <path d="M 323.931563 39.325937 
L 333.931563 39.325937 
L 343.931563 39.325937 
" style="fill: none; stroke: #7b68ee; stroke-width: 3; stroke-linecap: square"/>
    </g>
    <g id="text_19">
     <!-- Средняя площадь -->
     <g transform="translate(351.931563 42.825937) scale(0.1 -0.1)">
      <use xlink:href="#DejaVuSans-421"/>
      <use xlink:href="#DejaVuSans-440" x="69.824219"/>
      <use xlink:href="#DejaVuSans-435" x="133.300781"/>
      <use xlink:href="#DejaVuSans-434" x="194.824219"/>
      <use xlink:href="#DejaVuSans-43d" x="263.964844"/>
      <use xlink:href="#DejaVuSans-44f" x="329.345703"/>
      <use xlink:href="#DejaVuSans-44f" x="389.501953"/>
      <use xlink:href="#DejaVuSans-20" x="449.658203"/>
      <use xlink:href="#DejaVuSans-43f" x="481.445312"/>
      <use xlink:href="#DejaVuSans-43b" x="546.826172"/>
      <use xlink:href="#DejaVuSans-43e" x="610.742188"/>
      <use xlink:href="#DejaVuSans-449" x="671.923828"/>
      <use xlink:href="#DejaVuSans-430" x="766.113281"/>
      <use xlink:href="#DejaVuSans-434" x="827.392578"/>
      <use xlink:href="#DejaVuSans-44c" x="896.533203"/>
     </g>
    </g>
   </g>
  </g>
 </g>
 <defs>
  <clipPath id="pd0d3c15de2">
   <rect x="51.08375" y="26.2275" width="405.39625" height="174.4525"/>
  </clipPath>
 </defs>
</svg>
